<svg width="69" height="23" viewBox="0 0 69 23" fill="none" xmlns="http://www.w3.org/2000/svg">
<g clip-path="url(#clip0_104_880)">
<path d="M63.5053 -0.000413531H5.49783C5.28639 -0.000413531 5.07748 -0.000413531 4.86659 0.000736469C4.69006 0.00188647 4.51494 0.00522722 4.33672 0.00803897C3.94953 0.0125825 3.56325 0.0465503 3.18124 0.109647C2.79976 0.174118 2.43024 0.295663 2.08516 0.470172C1.74051 0.646158 1.42559 0.874833 1.15183 1.1479C0.876628 1.4202 0.647228 1.73495 0.472449 2.08003C0.297187 2.42442 0.17566 2.79348 0.112065 3.17444C0.0478653 3.55492 0.0133189 3.93979 0.00873571 4.32559C0.00338473 4.50188 0.00281964 4.67876 0 4.85508V18.1458C0.00281964 18.3243 0.00338473 18.4973 0.00873571 18.6759C0.0133203 19.0617 0.0478667 19.4465 0.112065 19.827C0.175484 20.2082 0.297019 20.5774 0.472449 20.9219C0.647149 21.2659 0.876581 21.5794 1.15183 21.8502C1.42455 22.1244 1.73968 22.3533 2.08516 22.5279C2.43024 22.7029 2.79972 22.8252 3.18124 22.8906C3.56331 22.9532 3.94955 22.9872 4.33672 22.9923C4.51494 22.9962 4.69006 22.9984 4.86659 22.9984C5.07747 22.9996 5.2864 22.9996 5.49783 22.9996H63.5053C63.7125 22.9996 63.9231 22.9996 64.1303 22.9984C64.306 22.9984 64.4862 22.9962 64.6619 22.9923C65.0483 22.9875 65.4338 22.9535 65.8151 22.8906C66.1979 22.8247 66.5687 22.7025 66.9154 22.5279C67.2606 22.3532 67.5754 22.1244 67.8479 21.8502C68.1225 21.5783 68.3524 21.2651 68.5293 20.9219C68.7034 20.5772 68.8237 20.2079 68.8862 19.827C68.9505 19.4465 68.9863 19.0617 68.9933 18.6759C68.9955 18.4973 68.9955 18.3243 68.9955 18.1458C69 17.9369 69 17.7291 69 17.5168V5.48286C69 5.27229 69 5.0634 68.9955 4.85508C68.9955 4.67876 68.9955 4.50188 68.9933 4.32556C68.9863 3.93973 68.9505 3.55495 68.8862 3.17441C68.8236 2.79367 68.7032 2.42465 68.5293 2.08001C68.1733 1.38832 67.6089 0.825301 66.9154 0.47012C66.5687 0.296038 66.1978 0.174525 65.8151 0.109595C65.4339 0.0462206 65.0484 0.0122409 64.6619 0.00795847C64.4862 0.00515247 64.306 0.00178297 64.1303 0.000661719C63.9231 -0.000488281 63.7125 -0.000488281 63.5053 -0.000488281V-0.000413531Z" fill="black"/>
<path d="M4.86956 22.4968C4.69388 22.4968 4.52244 22.4946 4.34813 22.4906C3.98705 22.486 3.6268 22.4546 3.27036 22.3969C2.93799 22.3398 2.61602 22.2336 2.31506 22.0818C2.01686 21.9313 1.74488 21.7339 1.50953 21.4973C1.27078 21.2634 1.072 20.9922 0.921089 20.6943C0.768511 20.3945 0.662918 20.0731 0.607988 19.7414C0.548668 19.385 0.516574 19.0246 0.511982 18.6633C0.508326 18.542 0.50354 18.1382 0.50354 18.1382V4.85542C0.50354 4.85542 0.508637 4.45786 0.512011 4.34106C0.516408 3.98035 0.548315 3.6205 0.607458 3.26462C0.662489 2.932 0.768164 2.60971 0.920824 2.30891C1.07118 2.01124 1.26885 1.7398 1.50617 1.50509C1.74322 1.26816 2.01607 1.06977 2.31478 0.917172C2.61505 0.765881 2.93641 0.660448 3.26811 0.604407C3.62572 0.546083 3.98721 0.51455 4.34955 0.510073L4.86984 0.503052H64.1277L64.6542 0.510354C65.0132 0.514609 65.3714 0.545861 65.7257 0.603844C66.0608 0.660587 66.3855 0.766756 66.6892 0.918857C67.2876 1.22639 67.7746 1.71295 68.0817 2.31032C68.232 2.60903 68.336 2.92869 68.3903 3.25845C68.4502 3.61725 68.4837 3.97993 68.4905 4.34359C68.4922 4.50643 68.4922 4.68135 68.4922 4.85542C68.4968 5.07105 68.4968 5.27628 68.4968 5.4832V17.5172C68.4968 17.7261 68.4968 17.9299 68.4922 18.1354C68.4922 18.3224 68.4922 18.4937 68.49 18.67C68.4832 19.0272 68.4503 19.3834 68.3914 19.7358C68.3376 20.0699 68.2326 20.3937 68.0801 20.696C67.9281 20.9907 67.7304 21.2596 67.4944 21.4928C67.2589 21.7307 66.9864 21.9292 66.6875 22.0807C66.3847 22.2337 66.0604 22.3403 65.7257 22.3969C65.3693 22.4549 65.009 22.4863 64.6479 22.4906C64.479 22.4946 64.3022 22.4968 64.1305 22.4968L63.5054 22.498L4.86956 22.4968Z" fill="white"/>
<path d="M14.4138 11.4363C14.4202 10.9372 14.5531 10.4479 14.8002 10.0138C15.0473 9.57971 15.4004 9.215 15.8268 8.9536C15.5559 8.56783 15.1986 8.25036 14.7832 8.0264C14.3677 7.80244 13.9056 7.67816 13.4336 7.66343C12.4267 7.55804 11.4506 8.26426 10.9375 8.26426C10.4144 8.26426 9.62443 7.6739 8.77373 7.69135C8.22348 7.70908 7.68721 7.86864 7.21718 8.15449C6.74716 8.44034 6.3594 8.84273 6.09169 9.32245C4.93205 11.3246 5.79704 14.2671 6.90789 15.8855C7.46368 16.678 8.11323 17.5632 8.96316 17.5318C9.79487 17.4974 10.1055 17.0029 11.1094 17.0029C12.1041 17.0029 12.3955 17.5318 13.2627 17.5119C14.1551 17.4974 14.7174 16.7159 15.2537 15.9159C15.653 15.3512 15.9603 14.7271 16.1642 14.0667C15.6457 13.848 15.2032 13.482 14.8919 13.0142C14.5807 12.5465 14.4144 11.9977 14.4138 11.4363Z" fill="black"/>
<path d="M12.7755 6.59891C13.2622 6.01639 13.5019 5.26766 13.4438 4.51172C12.7004 4.58958 12.0137 4.9439 11.5205 5.50407C11.2794 5.77772 11.0947 6.09609 10.977 6.44096C10.8594 6.78584 10.811 7.15046 10.8347 7.51398C11.2066 7.5178 11.5744 7.43742 11.9106 7.27892C12.2468 7.12041 12.5425 6.8879 12.7755 6.59891Z" fill="black"/>
<path d="M24.3922 15.6049H21.6628L21.0074 17.5349H19.8513L22.4365 10.3945H23.6376L26.2228 17.5349H25.047L24.3922 15.6049ZM21.9455 14.7143H24.1089L23.0424 11.5822H23.0126L21.9455 14.7143Z" fill="black"/>
<path d="M31.806 14.9325C31.806 16.5502 30.9377 17.5896 29.6274 17.5896C29.2954 17.6069 28.9653 17.5307 28.6748 17.3696C28.3843 17.2085 28.1452 16.9691 27.9848 16.6788H27.96V19.2573H26.8884V12.3292H27.9257V13.1951H27.9454C28.1131 12.9062 28.3563 12.668 28.649 12.506C28.9417 12.3439 29.273 12.264 29.6076 12.2748C30.9326 12.2748 31.806 13.3192 31.806 14.9325ZM30.7046 14.9325C30.7046 13.8785 30.1584 13.1856 29.325 13.1856C28.5062 13.1856 27.9555 13.8931 27.9555 14.9325C27.9555 15.9814 28.5062 16.6839 29.325 16.6839C30.1584 16.6839 30.7045 15.996 30.7045 14.9325H30.7046Z" fill="black"/>
<path d="M37.5521 14.9325C37.5521 16.5502 36.6835 17.5896 35.3732 17.5896C35.0413 17.6069 34.7112 17.5307 34.4207 17.3696C34.1302 17.2085 33.891 16.9691 33.7307 16.6788H33.7059V19.2573H32.6343V12.3292H33.6715V13.1951H33.6912C33.859 12.9062 34.1022 12.668 34.3949 12.506C34.6876 12.3439 35.0189 12.264 35.3535 12.2748C36.6785 12.2748 37.5521 13.3192 37.5521 14.9325ZM36.4504 14.9325C36.4504 13.8785 35.9042 13.1856 35.0708 13.1856C34.2521 13.1856 33.7014 13.8931 33.7014 14.9325C33.7014 15.9814 34.2521 16.6839 35.0708 16.6839C35.9042 16.6839 36.4504 15.996 36.4504 14.9325Z" fill="black"/>
<path d="M41.3493 15.5456C41.4287 16.2536 42.1185 16.7186 43.0611 16.7186C43.9643 16.7186 44.6141 16.2536 44.6141 15.6152C44.6141 15.0609 44.2222 14.7291 43.2942 14.5017L42.3662 14.2787C41.0514 13.962 40.441 13.3489 40.441 12.3538C40.441 11.1219 41.5176 10.2756 43.0459 10.2756C44.5595 10.2756 45.5967 11.1219 45.6316 12.3538H44.5499C44.4852 11.6413 43.8945 11.2111 43.0312 11.2111C42.168 11.2111 41.5773 11.6463 41.5773 12.2797C41.5773 12.7845 41.9546 13.0816 42.8775 13.309L43.6664 13.5021C45.1355 13.8486 45.7454 14.4371 45.7454 15.4815C45.7454 16.8174 44.6789 17.654 42.9817 17.654C41.3937 17.654 40.3216 16.837 40.2523 15.5455L41.3493 15.5456Z" fill="black"/>
<path d="M48.0587 11.0969V12.3289H49.0515V13.1751H48.0587V16.0451C48.0587 16.4909 48.2575 16.6987 48.6939 16.6987C48.8118 16.6966 48.9294 16.6884 49.0464 16.674V17.5151C48.8502 17.5517 48.6508 17.5682 48.4512 17.5645C47.3943 17.5645 46.9821 17.1687 46.9821 16.159V13.1751H46.223V12.3289H46.9821V11.0969H48.0587Z" fill="black"/>
<path d="M49.6261 14.9326C49.6261 13.2947 50.5935 12.2654 52.102 12.2654C53.6157 12.2654 54.5786 13.2946 54.5786 14.9326C54.5786 16.5751 53.6207 17.5999 52.102 17.5999C50.5839 17.5999 49.6261 16.5751 49.6261 14.9326ZM53.4867 14.9326C53.4867 13.809 52.9703 13.1458 52.102 13.1458C51.2337 13.1458 50.7174 13.8141 50.7174 14.9326C50.7174 16.0607 51.2337 16.7188 52.102 16.7188C52.9703 16.7188 53.4867 16.0607 53.4867 14.9326H53.4867Z" fill="black"/>
<path d="M55.4618 12.3292H56.4838V13.2153H56.5086C56.5778 12.9385 56.7403 12.694 56.969 12.5227C57.1977 12.3514 57.4785 12.2638 57.7643 12.2747C57.8878 12.2743 58.011 12.2877 58.1315 12.3146V13.3141C57.9756 13.2666 57.8129 13.2448 57.65 13.2495C57.4943 13.2432 57.3391 13.2706 57.1951 13.3298C57.051 13.3889 56.9215 13.4785 56.8154 13.5922C56.7093 13.706 56.6292 13.8414 56.5805 13.9889C56.5318 14.1365 56.5157 14.2929 56.5334 14.4472V17.5351H55.4618L55.4618 12.3292Z" fill="black"/>
<path d="M63.072 16.0063C62.9278 16.9513 62.0049 17.5999 60.8241 17.5999C59.3054 17.5999 58.3628 16.5852 58.3628 14.9573C58.3628 13.3244 59.3105 12.2654 60.7791 12.2654C62.2234 12.2654 63.1317 13.2548 63.1317 14.8332V15.1993H59.4445V15.2639C59.4275 15.4555 59.4515 15.6485 59.5151 15.8301C59.5786 16.0117 59.6802 16.1778 59.813 16.3172C59.9458 16.4567 60.1069 16.5664 60.2855 16.639C60.4641 16.7116 60.6561 16.7455 60.8489 16.7385C61.1021 16.7621 61.3562 16.7036 61.5734 16.5717C61.7907 16.4398 61.9594 16.2415 62.0545 16.0062L63.072 16.0063ZM59.4496 14.4525H62.0595C62.0692 14.2802 62.043 14.1079 61.9826 13.9462C61.9223 13.7845 61.829 13.637 61.7088 13.5129C61.5886 13.3888 61.4439 13.2909 61.2839 13.2252C61.1239 13.1595 60.952 13.1275 60.7791 13.1313C60.6046 13.1302 60.4316 13.1636 60.2701 13.2296C60.1086 13.2956 59.9618 13.3928 59.8382 13.5157C59.7146 13.6385 59.6167 13.7845 59.5499 13.9453C59.4832 14.1061 59.4491 14.2785 59.4496 14.4525V14.4525Z" fill="black"/>
<path d="M21.8111 5.02013C22.0358 5.00405 22.2612 5.0379 22.4712 5.11922C22.6811 5.20054 22.8704 5.32732 23.0252 5.49041C23.1801 5.65349 23.2967 5.84882 23.3667 6.0623C23.4367 6.27578 23.4584 6.50209 23.43 6.72491C23.43 7.82101 22.836 8.45106 21.8111 8.45106H20.5684V5.02013H21.8111ZM21.1027 7.96585H21.7514C21.912 7.97542 22.0726 7.94918 22.2217 7.88902C22.3708 7.82887 22.5045 7.73632 22.6132 7.61812C22.7219 7.49992 22.8028 7.35904 22.85 7.20574C22.8972 7.05243 22.9095 6.89056 22.8861 6.7319C22.9078 6.57387 22.8942 6.41301 22.8463 6.26082C22.7984 6.10864 22.7173 5.96892 22.6089 5.85166C22.5004 5.7344 22.3673 5.64251 22.2191 5.58257C22.0708 5.52263 21.9111 5.49614 21.7514 5.50497H21.1027V7.96585Z" fill="black"/>
<path d="M24.0335 7.15555C24.0172 6.9854 24.0367 6.81372 24.0908 6.65153C24.1449 6.48934 24.2324 6.34022 24.3477 6.21373C24.463 6.08724 24.6035 5.98618 24.7603 5.91702C24.917 5.84786 25.0866 5.81213 25.258 5.81213C25.4294 5.81213 25.5989 5.84786 25.7556 5.91702C25.9124 5.98618 26.0529 6.08724 26.1682 6.21373C26.2835 6.34022 26.371 6.48934 26.4251 6.65153C26.4792 6.81372 26.4987 6.9854 26.4824 7.15555C26.4991 7.32588 26.4798 7.49779 26.4258 7.66025C26.3718 7.8227 26.2844 7.97209 26.1691 8.09883C26.0537 8.22557 25.9131 8.32685 25.7562 8.39615C25.5993 8.46546 25.4296 8.50127 25.258 8.50127C25.0863 8.50127 24.9166 8.46546 24.7597 8.39615C24.6028 8.32685 24.4622 8.22557 24.3469 8.09883C24.2315 7.97209 24.1441 7.8227 24.0901 7.66025C24.0362 7.49779 24.0169 7.32588 24.0335 7.15555ZM25.9554 7.15555C25.9554 6.59431 25.7025 6.2661 25.2588 6.2661C24.8134 6.2661 24.5628 6.59431 24.5628 7.15556C24.5628 7.72129 24.8134 8.04697 25.2588 8.04697C25.7025 8.04697 25.9554 7.71904 25.9554 7.15555H25.9554Z" fill="black"/>
<path d="M29.7377 8.451H29.2062L28.6695 6.54407H28.629L28.0946 8.451H27.5681L26.8524 5.86182H27.3722L27.8373 7.83752H27.8756L28.4094 5.86182H28.901L29.4348 7.83752H29.4753L29.9382 5.86182H30.4506L29.7377 8.451Z" fill="black"/>
<path d="M31.0527 5.86161H31.546V6.27292H31.5843C31.6493 6.1252 31.7588 6.00136 31.8977 5.91867C32.0366 5.83598 32.1979 5.79856 32.3591 5.81163C32.4855 5.80216 32.6123 5.82115 32.7303 5.86721C32.8483 5.91326 32.9543 5.9852 33.0406 6.07768C33.127 6.17017 33.1913 6.28084 33.2289 6.40148C33.2665 6.52213 33.2764 6.64966 33.2578 6.77464V8.45077H32.7454V6.90296C32.7454 6.48687 32.5641 6.27995 32.1851 6.27995C32.0994 6.27596 32.0137 6.29052 31.9341 6.32262C31.8545 6.35472 31.7828 6.40361 31.7239 6.46593C31.665 6.52825 31.6204 6.60254 31.593 6.68369C31.5656 6.76484 31.5561 6.85094 31.5652 6.93608V8.4508H31.0527L31.0527 5.86161Z" fill="black"/>
<path d="M34.0743 4.85107H34.5868V8.451H34.0743V4.85107Z" fill="black"/>
<path d="M35.2991 7.1556C35.2828 6.98544 35.3023 6.81375 35.3565 6.65155C35.4106 6.48936 35.4981 6.34023 35.6134 6.21374C35.7287 6.08724 35.8692 5.98618 36.026 5.91702C36.1828 5.84786 36.3523 5.81213 36.5237 5.81213C36.6951 5.81213 36.8647 5.84786 37.0214 5.91702C37.1782 5.98618 37.3187 6.08724 37.434 6.21374C37.5493 6.34023 37.6368 6.48936 37.691 6.65155C37.7451 6.81375 37.7646 6.98544 37.7483 7.1556C37.7649 7.32593 37.7456 7.49785 37.6916 7.6603C37.6377 7.82275 37.5502 7.97215 37.4349 8.09888C37.3195 8.22561 37.1789 8.32689 37.022 8.39619C36.8651 8.4655 36.6953 8.5013 36.5237 8.5013C36.3521 8.5013 36.1824 8.4655 36.0255 8.39619C35.8685 8.32689 35.7279 8.22561 35.6126 8.09888C35.4972 7.97215 35.4098 7.82275 35.3558 7.6603C35.3018 7.49785 35.2825 7.32593 35.2991 7.1556ZM37.221 7.1556C37.221 6.59436 36.9681 6.26615 36.5244 6.26615C36.079 6.26615 35.8284 6.59436 35.8284 7.15561C35.8284 7.72134 36.079 8.04702 36.5244 8.04702C36.9681 8.04702 37.221 7.71909 37.221 7.1556H37.221Z" fill="black"/>
<path d="M38.2877 7.71906C38.2877 7.253 38.6357 6.98431 39.2534 6.94613L39.9567 6.9057V6.68221C39.9567 6.40875 39.7754 6.25433 39.4252 6.25433C39.1391 6.25433 38.9409 6.35906 38.884 6.54211H38.388C38.4403 6.09739 38.8598 5.81213 39.4488 5.81213C40.0998 5.81213 40.4669 6.13528 40.4669 6.68221V8.45129H39.9736V8.08743H39.9331C39.8508 8.21795 39.7353 8.32435 39.5982 8.39577C39.4612 8.46719 39.3076 8.50107 39.1532 8.49395C39.0442 8.50526 38.934 8.49366 38.8298 8.45991C38.7256 8.42616 38.6296 8.371 38.5481 8.29799C38.4665 8.22499 38.4012 8.13575 38.3564 8.03603C38.3115 7.93632 38.2881 7.82834 38.2877 7.71906ZM39.9567 7.49782V7.28136L39.3227 7.32179C38.9651 7.34565 38.803 7.46694 38.803 7.6952C38.803 7.92823 39.0057 8.06383 39.2844 8.06383C39.3661 8.07208 39.4486 8.06386 39.527 8.03965C39.6054 8.01545 39.6782 7.97576 39.7409 7.92296C39.8036 7.87015 39.8551 7.8053 39.8922 7.73226C39.9292 7.65922 39.9512 7.5795 39.9567 7.49782Z" fill="black"/>
<path d="M41.1406 7.15529C41.1406 6.33716 41.5624 5.81887 42.2184 5.81887C42.3807 5.81141 42.5417 5.85017 42.6827 5.93061C42.8237 6.01105 42.9388 6.12985 43.0146 6.27312H43.0529V4.85107H43.5653V8.451H43.0743V8.04193H43.0338C42.9521 8.18423 42.833 8.30155 42.6893 8.38118C42.5455 8.46081 42.3827 8.49971 42.2184 8.49367C41.5579 8.4937 41.1406 7.9754 41.1406 7.15529ZM41.67 7.15529C41.67 7.70447 41.9295 8.03492 42.3637 8.03492C42.7956 8.03492 43.0625 7.6997 43.0625 7.15754C43.0625 6.61792 42.7928 6.27791 42.3637 6.27791C41.9323 6.27791 41.6699 6.61061 41.6699 7.15529H41.67Z" fill="black"/>
<path d="M45.6852 7.15555C45.6689 6.9854 45.6884 6.81372 45.7425 6.65153C45.7966 6.48934 45.8842 6.34022 45.9994 6.21373C46.1147 6.08724 46.2553 5.98618 46.412 5.91702C46.5688 5.84786 46.7383 5.81213 46.9097 5.81213C47.0811 5.81213 47.2506 5.84786 47.4074 5.91702C47.5641 5.98618 47.7047 6.08724 47.8199 6.21373C47.9352 6.34022 48.0227 6.48934 48.0768 6.65153C48.131 6.81372 48.1505 6.9854 48.1342 7.15555C48.1508 7.32588 48.1315 7.49779 48.0775 7.66025C48.0236 7.8227 47.9361 7.97209 47.8208 8.09883C47.7055 8.22557 47.5648 8.32685 47.4079 8.39615C47.251 8.46546 47.0813 8.50127 46.9097 8.50127C46.7381 8.50127 46.5684 8.46546 46.4115 8.39615C46.2545 8.32685 46.1139 8.22557 45.9986 8.09883C45.8833 7.97209 45.7958 7.8227 45.7419 7.66025C45.6879 7.49779 45.6686 7.32588 45.6852 7.15555ZM47.6071 7.15555C47.6071 6.59431 47.3543 6.2661 46.9105 6.2661C46.4651 6.2661 46.2146 6.59431 46.2146 7.15556C46.2146 7.72129 46.4651 8.04697 46.9105 8.04697C47.3543 8.04697 47.6071 7.71904 47.6071 7.15555Z" fill="black"/>
<path d="M48.8214 5.86161H49.3147V6.27292H49.353C49.4179 6.1252 49.5275 6.00136 49.6664 5.91867C49.8053 5.83598 49.9666 5.79856 50.1278 5.81163C50.2541 5.80216 50.381 5.82115 50.499 5.86721C50.6169 5.91326 50.723 5.9852 50.8093 6.07768C50.8956 6.17017 50.96 6.28084 50.9976 6.40148C51.0352 6.52213 51.0451 6.64966 51.0265 6.77464V8.45077H50.5141V6.90296C50.5141 6.48687 50.3328 6.27995 49.9538 6.27995C49.868 6.27596 49.7824 6.29052 49.7028 6.32262C49.6232 6.35472 49.5515 6.40361 49.4926 6.46593C49.4337 6.52825 49.389 6.60254 49.3616 6.68369C49.3342 6.76484 49.3247 6.85094 49.3338 6.93608V8.4508H48.8214V5.86161Z" fill="black"/>
<path d="M53.9224 5.21716V5.87358H54.4849V6.30399H53.9224V7.63537C53.9224 7.90658 54.0344 8.02534 54.2895 8.02534C54.3548 8.02513 54.4201 8.0212 54.4849 8.01355V8.43918C54.3929 8.4556 54.2996 8.46433 54.2062 8.46529C53.6363 8.46529 53.4094 8.26539 53.4094 7.7662V6.30397H52.9972V5.87356H53.4094V5.21716H53.9224Z" fill="black"/>
<path d="M55.1848 4.85107H55.6927V6.27791H55.7333C55.8014 6.1288 55.914 6.00426 56.0556 5.92126C56.1973 5.83826 56.3612 5.80084 56.525 5.81409C56.6506 5.80727 56.7763 5.82819 56.8929 5.87537C57.0096 5.92254 57.1143 5.9948 57.1997 6.087C57.2851 6.17919 57.3491 6.28905 57.387 6.40873C57.4249 6.5284 57.4359 6.65495 57.4192 6.77935V8.45101H56.9062V6.90541C56.9062 6.49184 56.7131 6.28239 56.351 6.28239C56.2629 6.27519 56.1744 6.28726 56.0915 6.31777C56.0085 6.34828 55.9333 6.39648 55.8711 6.459C55.8088 6.52152 55.761 6.59686 55.731 6.67974C55.7009 6.76262 55.6894 6.85104 55.6973 6.93881V8.45099H55.1848L55.1848 4.85107Z" fill="black"/>
<path d="M60.4068 7.75163C60.3372 7.98826 60.1864 8.19295 59.9807 8.32989C59.775 8.46683 59.5276 8.52729 59.2818 8.5007C59.1107 8.5052 58.9407 8.47253 58.7836 8.40495C58.6265 8.33737 58.486 8.2365 58.3718 8.10935C58.2577 7.9822 58.1727 7.8318 58.1227 7.6686C58.0727 7.50541 58.059 7.33332 58.0824 7.16428C58.0596 6.99472 58.0736 6.82226 58.1235 6.65857C58.1733 6.49488 58.2579 6.34379 58.3714 6.21553C58.4849 6.08726 58.6248 5.98481 58.7814 5.91512C58.9381 5.84542 59.108 5.81011 59.2795 5.81157C60.002 5.81157 60.4378 6.30377 60.4378 7.11682V7.29512H58.6044V7.32375C58.5963 7.41877 58.6083 7.51441 58.6395 7.60454C58.6707 7.69467 58.7205 7.77731 58.7856 7.84714C58.8507 7.91698 58.9297 7.97248 59.0176 8.01008C59.1054 8.04769 59.2002 8.06656 59.2958 8.0655C59.4184 8.08018 59.5426 8.05817 59.6526 8.00227C59.7626 7.94638 59.8534 7.85913 59.9136 7.75161L60.4068 7.75163ZM58.6043 6.91721H59.9158C59.9223 6.83031 59.9104 6.74302 59.881 6.66096C59.8516 6.5789 59.8054 6.50387 59.7452 6.4407C59.685 6.37753 59.6122 6.32762 59.5315 6.29417C59.4508 6.26072 59.364 6.24447 59.2767 6.24647C59.1881 6.24536 59.1001 6.26195 59.018 6.29527C58.9359 6.32859 58.8613 6.37796 58.7987 6.44047C58.736 6.50298 58.6866 6.57736 58.6532 6.65924C58.6198 6.74112 58.6032 6.82883 58.6044 6.91721H58.6043Z" fill="black"/>
</g>
<defs>
<clipPath id="clip0_104_880">
<rect width="69" height="23" fill="white"/>
</clipPath>
</defs>
</svg>
