<svg width="78" height="23" viewBox="0 0 78 23" fill="none" xmlns="http://www.w3.org/2000/svg">
<g clip-path="url(#clip0_104_879)">
<path d="M75.1111 0H2.88889C1.2934 0 0 1.28718 0 2.875V20.125C0 21.7128 1.2934 23 2.88889 23H75.1111C76.7066 23 78 21.7128 78 20.125V2.875C78 1.28718 76.7066 0 75.1111 0Z" fill="white"/>
<path d="M75.1111 0.46C75.7547 0.46 76.3719 0.714437 76.827 1.16734C77.2821 1.62024 77.5378 2.2345 77.5378 2.875V20.125C77.5378 20.7655 77.2821 21.3798 76.827 21.8327C76.3719 22.2856 75.7547 22.54 75.1111 22.54H2.88889C2.2453 22.54 1.62806 22.2856 1.17298 21.8327C0.717888 21.3798 0.462222 20.7655 0.462222 20.125V2.875C0.462222 2.2345 0.717888 1.62024 1.17298 1.16734C1.62806 0.714437 2.2453 0.46 2.88889 0.46H75.1111ZM75.1111 0H2.88889C2.12271 0 1.38791 0.302901 0.846136 0.842068C0.304364 1.38124 0 2.1125 0 2.875V20.125C0 20.8875 0.304364 21.6188 0.846136 22.1579C1.38791 22.6971 2.12271 23 2.88889 23H75.1111C75.8773 23 76.6121 22.6971 77.1539 22.1579C77.6956 21.6188 78 20.8875 78 20.125V2.875C78 2.1125 77.6956 1.38124 77.1539 0.842068C76.6121 0.302901 75.8773 0 75.1111 0Z" fill="black"/>
<path d="M27.3982 5.888C27.4077 6.09887 27.3742 6.30946 27.2997 6.5071C27.2253 6.70474 27.1114 6.88533 26.9649 7.038C26.8008 7.20664 26.6027 7.33889 26.3836 7.42609C26.1646 7.51329 25.9295 7.55347 25.6938 7.544C25.4567 7.54926 25.221 7.50604 25.0014 7.41703C24.7818 7.32802 24.5828 7.1951 24.4169 7.0265C24.0802 6.68378 23.8917 6.22353 23.8917 5.74425C23.8917 5.26496 24.0802 4.80472 24.4169 4.462C24.6743 4.21169 25.0003 4.04267 25.3539 3.97617C25.7075 3.90968 26.073 3.94867 26.4045 4.08825C26.6128 4.17348 26.7986 4.3053 26.9476 4.4735L26.6413 4.77825C26.5266 4.64069 26.3812 4.53165 26.2167 4.45979C26.0522 4.38792 25.8732 4.35521 25.6938 4.36425C25.4673 4.36581 25.2447 4.42255 25.0453 4.52951C24.846 4.63647 24.676 4.7904 24.5502 4.97785C24.4244 5.16529 24.3467 5.38054 24.3238 5.60477C24.3009 5.82901 24.3336 6.05542 24.4189 6.2642C24.5042 6.47298 24.6397 6.65778 24.8133 6.80244C24.987 6.94711 25.1937 7.04724 25.4152 7.09408C25.6367 7.14093 25.8664 7.13305 26.0842 7.07115C26.302 7.00925 26.5012 6.89521 26.6645 6.739C26.8409 6.54643 26.9433 6.29794 26.9533 6.0375H25.6938V5.6235H27.3751C27.3883 5.71111 27.396 5.79944 27.3982 5.888Z" fill="black" stroke="black" stroke-width="0.411304" stroke-miterlimit="10"/>
<path d="M30.0444 4.4504H28.4844V5.5429H29.9057V5.9569H28.4844V7.0494H30.0444V7.4749H28.0337V4.0249H30.0444V4.4504Z" fill="black" stroke="black" stroke-width="0.411304" stroke-miterlimit="10"/>
<path d="M31.9395 7.4749H31.4946V4.4504H30.5239V4.0249H32.9333V4.4504H31.9395V7.4749Z" fill="black" stroke="black" stroke-width="0.411304" stroke-miterlimit="10"/>
<path d="M34.632 7.4749V4.0249H35.0768V7.4749H34.632Z" fill="black" stroke="black" stroke-width="0.411304" stroke-miterlimit="10"/>
<path d="M37.053 7.4749H36.6081V4.4504H35.6375V4.0249H38.0179V4.4504H37.053V7.4749Z" fill="black" stroke="black" stroke-width="0.411304" stroke-miterlimit="10"/>
<path d="M42.5303 7.02641C42.3635 7.19262 42.1653 7.32447 41.9472 7.41443C41.7291 7.50439 41.4953 7.55069 41.2592 7.55069C41.0231 7.55069 40.7893 7.50439 40.5712 7.41443C40.3531 7.32447 40.155 7.19262 39.9881 7.02641C39.6615 6.68086 39.4796 6.22432 39.4796 5.74991C39.4796 5.2755 39.6615 4.81896 39.9881 4.47341C40.1514 4.30252 40.3489 4.16765 40.5679 4.07751C40.7868 3.98738 41.0223 3.94399 41.2592 3.95016C41.4958 3.94644 41.7306 3.99094 41.9492 4.08093C42.1678 4.17092 42.3655 4.30449 42.5303 4.47341C42.6965 4.64159 42.8271 4.8412 42.9144 5.06045C43.0017 5.27969 43.044 5.51413 43.0388 5.74991C43.0464 5.98599 43.0051 6.2211 42.9177 6.44068C42.8302 6.66026 42.6984 6.85962 42.5303 7.02641ZM40.3174 6.73891C40.4405 6.86304 40.5872 6.9616 40.7488 7.02887C40.9105 7.09615 41.084 7.13079 41.2592 7.13079C41.4345 7.13079 41.6079 7.09615 41.7696 7.02887C41.9313 6.9616 42.0779 6.86304 42.201 6.73891C42.4503 6.46931 42.5887 6.1163 42.5887 5.74991C42.5887 5.38352 42.4503 5.03051 42.201 4.76091C42.0779 4.63678 41.9313 4.53822 41.7696 4.47095C41.6079 4.40368 41.4345 4.36904 41.2592 4.36904C41.084 4.36904 40.9105 4.40368 40.7488 4.47095C40.5872 4.53822 40.4405 4.63678 40.3174 4.76091C40.0681 5.03051 39.9298 5.38352 39.9298 5.74991C39.9298 6.1163 40.0681 6.46931 40.3174 6.73891Z" fill="black" stroke="black" stroke-width="0.411304" stroke-miterlimit="10"/>
<path d="M43.6685 7.4749V4.0249H44.2058L45.8929 6.71015V6.04315V4.0249H46.3378V7.4749H45.8756L44.1133 4.66315V5.3244V7.4749H43.6685Z" fill="black" stroke="black" stroke-width="0.411304" stroke-miterlimit="10"/>
<path d="M39.3699 12.5063C38.8831 12.5074 38.4076 12.6522 38.0034 12.9223C37.5993 13.1924 37.2847 13.5757 37.0995 14.0237C36.9143 14.4717 36.8667 14.9644 36.9628 15.4393C37.0589 15.9142 37.2943 16.3501 37.6393 16.6919C37.9844 17.0337 38.4235 17.2659 38.9012 17.3593C39.3788 17.4527 39.8736 17.4031 40.3229 17.2166C40.7722 17.0302 41.1559 16.7153 41.4254 16.3119C41.6949 15.9084 41.8382 15.4345 41.837 14.95C41.8417 14.6268 41.781 14.306 41.6586 14.0067C41.5361 13.7073 41.3544 13.4355 41.1242 13.2075C40.894 12.9795 40.62 12.7999 40.3187 12.6794C40.0173 12.559 39.6946 12.5001 39.3699 12.5063V12.5063ZM39.3699 16.4335C39.0715 16.4543 38.7738 16.3853 38.5153 16.2354C38.2569 16.0855 38.0498 15.8617 37.9208 15.5931C37.7919 15.3245 37.7471 15.0236 37.7924 14.7293C37.8376 14.4351 37.9707 14.1612 38.1745 13.9432C38.3782 13.7253 38.6431 13.5734 38.9347 13.5072C39.2263 13.4411 39.5312 13.4638 39.8097 13.5724C40.0882 13.681 40.3274 13.8704 40.4963 14.1161C40.6651 14.3618 40.7558 14.6524 40.7566 14.95C40.7659 15.1386 40.7371 15.3272 40.6721 15.5046C40.607 15.682 40.5069 15.8446 40.3776 15.9828C40.2484 16.1211 40.0926 16.2322 39.9196 16.3096C39.7465 16.387 39.5596 16.4292 39.3699 16.4335ZM33.985 12.5063C33.4982 12.5074 33.0227 12.6522 32.6185 12.9223C32.2144 13.1924 31.8998 13.5757 31.7146 14.0237C31.5294 14.4717 31.4818 14.9644 31.5779 15.4393C31.674 15.9142 31.9094 16.3501 32.2545 16.6919C32.5995 17.0337 33.0386 17.2659 33.5163 17.3593C33.994 17.4527 34.4887 17.4031 34.938 17.2166C35.3873 17.0302 35.771 16.7153 36.0405 16.3119C36.31 15.9084 36.4533 15.4345 36.4521 14.95C36.4568 14.6268 36.3961 14.306 36.2737 14.0067C36.1512 13.7073 35.9695 13.4355 35.7393 13.2075C35.5091 12.9795 35.2352 12.7999 34.9338 12.6794C34.6324 12.559 34.3097 12.5001 33.985 12.5063V12.5063ZM33.985 16.4335C33.6866 16.4543 33.3889 16.3853 33.1305 16.2354C32.872 16.0855 32.6649 15.8617 32.536 15.5931C32.407 15.3245 32.3623 15.0236 32.4075 14.7293C32.4527 14.4351 32.5858 14.1612 32.7896 13.9432C32.9933 13.7253 33.2582 13.5734 33.5498 13.5072C33.8414 13.4411 34.1463 13.4638 34.4248 13.5724C34.7033 13.681 34.9425 13.8704 35.1114 14.1161C35.2803 14.3618 35.3709 14.6524 35.3717 14.95C35.381 15.1386 35.3522 15.3272 35.2872 15.5046C35.2221 15.682 35.122 15.8446 34.9927 15.9828C34.8635 16.1211 34.7077 16.2322 34.5347 16.3096C34.3616 16.387 34.1747 16.4292 33.985 16.4335ZM27.5832 13.2595V14.2945H30.0792C30.0401 14.782 29.8365 15.242 29.5015 15.5998C29.2511 15.8536 28.9499 16.0524 28.6175 16.1831C28.2851 16.3139 27.9288 16.3737 27.5717 16.3588C26.8361 16.3588 26.1307 16.068 25.6106 15.5504C25.0905 15.0328 24.7983 14.3308 24.7983 13.5988C24.7983 12.8668 25.0905 12.1648 25.6106 11.6472C26.1307 11.1296 26.8361 10.8388 27.5717 10.8388C28.2768 10.8283 28.9577 11.0948 29.4668 11.5805L30.2006 10.8503C29.8562 10.5113 29.4473 10.2442 28.9979 10.0645C28.5485 9.88477 28.0675 9.79614 27.5832 9.80378C27.0696 9.78388 26.5572 9.86739 26.0767 10.0493C25.5963 10.2312 25.1577 10.5077 24.7872 10.8624C24.4167 11.217 24.122 11.6424 23.9207 12.1131C23.7194 12.5838 23.6156 13.0901 23.6156 13.6017C23.6156 14.1132 23.7194 14.6195 23.9207 15.0902C24.122 15.5609 24.4167 15.9863 24.7872 16.3409C25.1577 16.6956 25.5963 16.9721 26.0767 17.154C26.5572 17.3359 27.0696 17.4194 27.5832 17.3995C28.0775 17.4192 28.5703 17.3346 29.0294 17.1512C29.4884 16.9679 29.9033 16.69 30.2468 16.3358C30.8535 15.6725 31.1768 14.8001 31.1481 13.9035C31.1502 13.6877 31.1328 13.4722 31.0961 13.2595H27.5832ZM53.7623 14.0645C53.6117 13.6234 53.3299 13.2381 52.9543 12.9599C52.5788 12.6816 52.1271 12.5234 51.6592 12.5063C51.3432 12.5057 51.0304 12.5696 50.7401 12.694C50.4499 12.8185 50.1884 13.0009 49.9718 13.2299C49.7552 13.459 49.588 13.7298 49.4808 14.0256C49.3735 14.3215 49.3284 14.6361 49.3481 14.95C49.3432 15.4749 49.509 15.9873 49.8208 16.4107C50.1326 16.834 50.5737 17.1457 51.0781 17.299C51.5826 17.4523 52.1233 17.4391 52.6196 17.2614C53.1159 17.0836 53.5411 16.7508 53.8317 16.3128L52.9939 15.7378C52.869 15.9449 52.6919 16.116 52.48 16.234C52.2682 16.352 52.0291 16.4129 51.7863 16.4105C51.5359 16.4208 51.2882 16.3555 51.0758 16.2231C50.8634 16.0907 50.6962 15.8975 50.5961 15.6688L53.8837 14.3175L53.7623 14.0645ZM50.4112 14.881C50.3995 14.7024 50.4237 14.5233 50.4825 14.3541C50.5412 14.1849 50.6332 14.0291 50.7532 13.8958C50.8732 13.7624 51.0187 13.6543 51.1812 13.5776C51.3437 13.5009 51.52 13.4573 51.6997 13.4493C51.8858 13.438 52.0712 13.4816 52.2326 13.5747C52.3939 13.6677 52.5241 13.8061 52.6068 13.9725L50.4112 14.881ZM47.7419 17.25H48.8223V10.0625H47.7419V17.25ZM45.9739 13.0525H45.9335C45.772 12.8696 45.5729 12.7235 45.3495 12.6243C45.1261 12.525 44.8838 12.475 44.6392 12.4775C44.0078 12.508 43.4124 12.7791 42.9764 13.2346C42.5403 13.6901 42.2971 14.295 42.2971 14.9242C42.2971 15.5533 42.5403 16.1583 42.9764 16.6137C43.4124 17.0692 44.0078 17.3403 44.6392 17.3708C44.8842 17.3757 45.1272 17.3267 45.3509 17.2273C45.5747 17.1279 45.7736 16.9805 45.9335 16.7958H45.9739V17.1465C45.9739 18.0838 45.4712 18.584 44.6623 18.584C44.3921 18.5781 44.1298 18.4924 43.9086 18.3378C43.6874 18.1832 43.5174 17.9667 43.4201 17.7158L42.4841 18.101C42.6572 18.5336 42.958 18.9037 43.347 19.1624C43.7359 19.4211 44.1946 19.5563 44.6623 19.55C45.9277 19.55 46.9735 18.8083 46.9735 17.0028V12.65H45.9739V13.0525ZM44.7317 16.4335C44.3531 16.41 43.9978 16.2438 43.7381 15.9687C43.4783 15.6936 43.3338 15.3304 43.3338 14.9529C43.3338 14.5754 43.4783 14.2122 43.7381 13.9371C43.9978 13.662 44.3531 13.4958 44.7317 13.4723C44.9167 13.4802 45.0982 13.5251 45.2655 13.6043C45.4327 13.6835 45.5822 13.7954 45.7051 13.9332C45.828 14.0711 45.9218 14.2322 45.9809 14.4069C46.04 14.5815 46.0631 14.7663 46.049 14.95C46.0648 15.1344 46.0428 15.3201 45.9844 15.4958C45.926 15.6715 45.8324 15.8336 45.7093 15.9723C45.5861 16.1109 45.436 16.2233 45.268 16.3026C45.0999 16.3819 44.9175 16.4264 44.7317 16.4335V16.4335ZM58.8237 10.0625H56.2352V17.25H57.3157V14.5245H58.8237C59.1316 14.5465 59.4408 14.5052 59.7319 14.403C60.0231 14.3009 60.29 14.1402 60.516 13.9308C60.742 13.7215 60.9222 13.4681 61.0454 13.1864C61.1687 12.9047 61.2323 12.6008 61.2323 12.2935C61.2323 11.9863 61.1687 11.6823 61.0454 11.4007C60.9222 11.119 60.742 10.8655 60.516 10.6562C60.29 10.4469 60.0231 10.2862 59.7319 10.184C59.4408 10.0819 59.1316 10.0405 58.8237 10.0625V10.0625ZM58.8237 13.5125H57.3157V11.063H58.8468C59.0092 11.063 59.1699 11.0949 59.32 11.1567C59.47 11.2185 59.6063 11.3092 59.7211 11.4234C59.8359 11.5377 59.927 11.6733 59.9891 11.8226C60.0512 11.9719 60.0832 12.1319 60.0832 12.2935C60.0832 12.4551 60.0512 12.6151 59.9891 12.7644C59.927 12.9137 59.8359 13.0494 59.7211 13.1636C59.6063 13.2779 59.47 13.3685 59.32 13.4304C59.1699 13.4922 59.0092 13.524 58.8468 13.524L58.8237 13.5125ZM65.4912 12.4833C65.0978 12.4591 64.7058 12.5503 64.3639 12.7455C64.0219 12.9407 63.7449 13.2313 63.5672 13.5815L64.5206 13.9783C64.6169 13.8054 64.7615 13.664 64.9368 13.5712C65.1121 13.4783 65.3107 13.438 65.5086 13.455C65.6457 13.4391 65.7847 13.4505 65.9174 13.4886C66.0501 13.5266 66.1738 13.5906 66.2814 13.6768C66.3889 13.763 66.4782 13.8696 66.5439 13.9905C66.6096 14.1113 66.6505 14.244 66.6641 14.3808V14.4498C66.3167 14.268 65.93 14.1733 65.5375 14.1738C64.509 14.1738 63.4575 14.7488 63.4575 15.7953C63.4676 16.0177 63.5226 16.2358 63.6191 16.4367C63.7157 16.6376 63.8518 16.8171 64.0194 16.9646C64.187 17.1121 64.3827 17.2246 64.5949 17.2953C64.807 17.3661 65.0313 17.3937 65.2543 17.3765C65.5255 17.3915 65.7957 17.3344 66.0373 17.2111C66.279 17.0878 66.4833 16.9028 66.6295 16.675H66.6641V17.25H67.7041V14.4843C67.7041 13.225 66.745 12.4948 65.5143 12.4948L65.4912 12.4833ZM65.3583 16.422C65.0059 16.422 64.5148 16.2438 64.5148 15.8125C64.5148 15.2375 65.1272 15.042 65.6703 15.042C66.0136 15.0336 66.3528 15.117 66.6526 15.2835C66.6163 15.5958 66.4675 15.8844 66.2338 16.0958C66.0001 16.3073 65.6973 16.4273 65.3815 16.4335L65.3583 16.422ZM71.4943 12.65L70.2579 15.7665H70.2232L68.9406 12.65H67.785L69.709 17.0085L68.6112 19.4293H69.7379L72.6961 12.65H71.4943ZM61.7877 17.25H62.8623V10.0625H61.7877V17.25Z" fill="black"/>
<path d="M6.03185 4.33554C5.84146 4.55957 5.74431 4.84755 5.7603 5.14054V17.8595C5.74064 18.153 5.83824 18.4423 6.03185 18.6645L6.0723 18.7105L13.231 11.5863V11.4138L6.0723 4.29529L6.03185 4.33554Z" fill="url(#paint0_linear_104_879)"/>
<path d="M15.6 13.9609L13.2311 11.5862V11.4137L15.6 9.03894L15.652 9.07344L18.4889 10.6719C19.2977 11.1262 19.2977 11.8737 18.4889 12.3337L15.6635 13.9322L15.6 13.9609Z" fill="url(#paint1_linear_104_879)"/>
<path d="M15.6693 13.9264L13.2311 11.4999L6.03198 18.6644C6.19525 18.809 6.40422 18.8922 6.62267 18.8996C6.84113 18.9069 7.05527 18.8379 7.22798 18.7046L15.6693 13.9264" fill="url(#paint2_linear_104_879)"/>
<path d="M15.6693 9.07335L7.22798 4.30085C7.0564 4.16567 6.84242 4.09503 6.62367 4.10134C6.40492 4.10765 6.19541 4.19051 6.03198 4.33535L13.2311 11.4998L15.6693 9.07335Z" fill="url(#paint3_linear_104_879)"/>
<path opacity="0.2" d="M15.6 13.8748L7.22798 18.6185C7.06155 18.7435 6.85872 18.8111 6.6502 18.8111C6.44169 18.8111 6.23886 18.7435 6.07243 18.6185V18.6185L6.03198 18.6588L6.07243 18.7048C6.23886 18.8298 6.44169 18.8974 6.6502 18.8974C6.85872 18.8974 7.06155 18.8298 7.22798 18.7048L15.6693 13.9265L15.6 13.8748Z" fill="black"/>
<path opacity="0.12" d="M6.03195 18.5839C5.84637 18.3559 5.75542 18.0658 5.77773 17.7732V17.8594C5.75807 18.1529 5.85567 18.4422 6.04928 18.6644L6.08973 18.6242L6.03195 18.5839Z" fill="black"/>
<path opacity="0.12" d="M18.4887 12.2474L15.5999 13.8746L15.6519 13.9264L18.4887 12.3279C18.6562 12.2574 18.8015 12.1433 18.9092 11.9976C19.017 11.8519 19.0833 11.6799 19.1012 11.4999C19.0651 11.6635 18.9908 11.8164 18.8844 11.9462C18.7781 12.0761 18.6425 12.1792 18.4887 12.2474Z" fill="black"/>
<path opacity="0.25" d="M7.22793 4.38141L18.4888 10.7524C18.6426 10.8206 18.7781 10.9237 18.8845 11.0536C18.9909 11.1834 19.0651 11.3363 19.1013 11.4999C19.0834 11.3199 19.0171 11.1479 18.9093 11.0022C18.8015 10.8565 18.6563 10.7424 18.4888 10.6719L7.22793 4.30091C6.42482 3.84091 5.76038 4.22041 5.76038 5.14041V5.22666C5.77771 4.30666 6.42482 3.92716 7.22793 4.38141Z" fill="white"/>
</g>
<defs>
<linearGradient id="paint0_linear_104_879" x1="12.5954" y1="5.00829" x2="2.94702" y2="14.7033" gradientUnits="userSpaceOnUse">
<stop stop-color="#00A0FF"/>
<stop offset="0.01" stop-color="#00A1FF"/>
<stop offset="0.26" stop-color="#00BEFF"/>
<stop offset="0.51" stop-color="#00D2FF"/>
<stop offset="0.76" stop-color="#00DFFF"/>
<stop offset="1" stop-color="#00E3FF"/>
</linearGradient>
<linearGradient id="paint1_linear_104_879" x1="19.5462" y1="11.4999" x2="5.56975" y2="11.4999" gradientUnits="userSpaceOnUse">
<stop stop-color="#FFE000"/>
<stop offset="0.41" stop-color="#FFBD00"/>
<stop offset="0.78" stop-color="#FFA500"/>
<stop offset="1" stop-color="#FF9C00"/>
</linearGradient>
<linearGradient id="paint2_linear_104_879" x1="14.3462" y1="12.8224" x2="1.25933" y2="25.9667" gradientUnits="userSpaceOnUse">
<stop stop-color="#FF3A44"/>
<stop offset="1" stop-color="#C31162"/>
</linearGradient>
<linearGradient id="paint3_linear_104_879" x1="4.21776" y1="0.103349" x2="10.0597" y2="5.9735" gradientUnits="userSpaceOnUse">
<stop stop-color="#32A071"/>
<stop offset="0.07" stop-color="#2DA771"/>
<stop offset="0.48" stop-color="#15CF74"/>
<stop offset="0.8" stop-color="#06E775"/>
<stop offset="1" stop-color="#00F076"/>
</linearGradient>
<clipPath id="clip0_104_879">
<rect width="78" height="23" fill="white"/>
</clipPath>
</defs>
</svg>
